<svg width="68" height="68" viewBox="0 0 68 68" fill="none" xmlns="http://www.w3.org/2000/svg">
<path fill-rule="evenodd" clip-rule="evenodd" d="M67.5 33.748C67.5 15.1087 52.3873 0 33.752 0C15.1103 0 0 15.1087 0 33.748C0 52.3849 15.1103 67.4984 33.752 67.4984C52.3873 67.4984 67.5 52.3849 67.5 33.748ZM25.3344 61.3255C28.0118 61.3255 30.0094 61.0632 30.1534 57.4222H36.7429C36.8868 61.0632 38.91 61.1816 41.5203 61.1816V63.0281H25.3344V61.3255ZM42.4303 30.8059C45.9586 31.9231 54.2394 35.6993 54.2394 43.5115C54.2394 51.2166 46.9766 55.806 38.3559 55.806H13.2606L13.2862 53.8068C17.8388 53.8068 19.1871 53.207 19.1871 48.5584V19.1551C19.1871 13.9803 17.1447 13.6564 13.2774 13.6564V11.7963C14.0019 11.7795 23.1184 11.7915 30.1534 11.7963C30.0094 8.1513 28.0118 7.8866 25.3344 7.8866V6.18724H41.5203V8.03294C38.91 8.03294 36.8868 8.1513 36.7429 11.7963H38.3559C41.9961 11.7963 50.9351 13.0494 50.9519 20.409C50.9647 25.5735 47.4764 28.8586 42.4303 30.8059ZM47.298 44.7478C47.298 38.6357 43.1012 34.5669 37.996 32.1014C34.666 32.8251 30.7571 33.249 27.1009 33.2802L28.0198 31.0002C28.8498 30.9731 29.4784 30.9219 30.1534 30.8819V15.5933H36.7429V29.8935C42.2648 28.2637 44.5767 24.9865 44.5767 21.1816C44.5767 16.305 40.8789 13.9763 36.7261 13.9763L25.7894 13.9803V48.6935C25.7894 52.3681 27.999 53.1382 30.1534 53.1766V35.1211C32.6236 35.0347 35.2778 34.6836 36.7429 34.343V53.1766C42.0089 53.1718 47.298 49.9634 47.298 44.7478Z" fill="#004F91"/>
</svg>
